<?xml version="1.0" standalone="no"?>
<!DOCTYPE svg PUBLIC "-//W3C//DTD SVG 20010904//EN"
 "http://www.w3.org/TR/2001/REC-SVG-20010904/DTD/svg10.dtd">
<svg version="1.0" xmlns="http://www.w3.org/2000/svg"
 width="1024.000000pt" height="1024.000000pt" viewBox="0 0 1024.000000 1024.000000"
 preserveAspectRatio="xMidYMid meet">
<metadata>
Created by potrace 1.16, written by Peter Selinger 2001-2019
</metadata>
<g transform="translate(0.000000,1024.000000) scale(0.100000,-0.100000)"
fill="#000000" stroke="none">
<path d="M5160 8030 c-370 -5 -367 -5 -414 -61 l-26 -31 0 -350 c0 -388 1
-395 65 -444 l33 -25 365 -1 c361 -1 366 0 401 22 67 41 67 39 64 439 -3 347
-4 361 -24 388 -26 35 -82 74 -103 71 -9 -1 -171 -5 -361 -8z"/>
<path d="M6400 8030 c-349 -5 -347 -5 -394 -61 l-26 -31 0 -364 0 -364 43 -45
44 -45 371 0 370 0 31 25 c59 51 62 72 59 462 l-3 351 -25 27 c-35 37 -73 55
-112 53 -18 -1 -179 -5 -358 -8z"/>
<path d="M7675 8030 c-322 -5 -352 -6 -378 -24 -56 -38 -57 -43 -57 -436 0
-350 1 -363 21 -391 41 -59 44 -59 442 -59 359 0 365 0 392 22 52 41 54 56 56
443 1 337 0 359 -18 383 -24 32 -62 59 -88 64 -11 2 -177 1 -370 -2z"/>
<path d="M2272 7986 l-47 -45 -3 -335 c-2 -212 1 -350 8 -375 6 -24 25 -52 48
-73 l38 -35 272 -6 c309 -7 456 -1 490 21 13 8 32 32 43 53 18 36 19 62 19
400 l0 361 -39 39 -39 39 -371 0 -372 0 -47 -44z"/>
<path d="M3552 8009 c-18 -12 -42 -39 -52 -60 -19 -36 -20 -60 -20 -380 0
-328 1 -343 21 -379 39 -70 35 -69 435 -72 341 -3 361 -2 391 16 60 37 63 57
63 447 0 387 -1 391 -63 429 -30 19 -52 20 -387 20 -344 0 -356 -1 -388 -21z"/>
<path d="M2588 6790 l-286 -5 -27 -25 c-56 -53 -56 -52 -52 -420 4 -325 5
-340 26 -373 38 -62 46 -63 447 -62 325 0 363 2 387 18 61 39 60 33 58 430 -2
397 -1 389 -64 427 -26 16 -48 20 -117 18 -47 -1 -214 -5 -372 -8z"/>
<path d="M3577 6787 c-12 -5 -33 -18 -45 -30 -51 -48 -52 -53 -52 -409 0 -369
2 -380 66 -423 30 -20 41 -21 399 -17 315 3 371 5 392 19 52 34 53 45 53 425
0 327 -2 355 -19 381 -41 63 -32 62 -419 62 -194 0 -363 -4 -375 -8z"/>
<path d="M5103 6790 l-301 -5 -27 -25 c-55 -51 -55 -52 -55 -417 0 -317 1
-340 20 -370 41 -69 31 -67 454 -66 l381 1 38 42 37 43 0 349 c0 306 -2 354
-17 385 -26 56 -65 73 -153 71 -41 -1 -211 -5 -377 -8z"/>
<path d="M6060 6782 c-31 -17 -59 -41 -71 -65 -6 -10 -10 -162 -9 -364 0 -333
1 -348 21 -380 42 -68 29 -66 446 -64 329 2 379 4 401 19 49 32 52 54 52 437
l0 355 -33 36 -33 36 -374 2 c-292 1 -380 -2 -400 -12z"/>
<path d="M7308 6778 c-15 -10 -37 -32 -48 -50 -19 -31 -20 -51 -20 -376 0
-299 2 -349 16 -379 33 -69 26 -68 440 -67 337 0 375 2 399 18 53 34 55 54 55
441 l0 355 -34 38 -34 37 -373 0 c-336 0 -375 -2 -401 -17z"/>
<path d="M2286 5554 c-64 -44 -66 -54 -66 -424 0 -310 1 -333 20 -370 11 -21
33 -48 50 -60 29 -21 35 -21 397 -18 400 3 398 3 433 61 19 30 20 53 20 392 0
325 -2 363 -17 385 -43 62 -24 59 -428 60 l-370 0 -39 -26z"/>
<path d="M3554 5561 c-17 -10 -41 -35 -53 -54 -21 -35 -22 -41 -19 -392 l3
-356 43 -40 43 -40 362 3 c322 3 366 5 394 20 64 36 63 26 63 421 0 388 -1
392 -56 436 -26 20 -37 21 -388 21 -337 0 -363 -1 -392 -19z"/>
<path d="M4787 5555 c-67 -46 -67 -46 -67 -417 0 -305 2 -336 19 -375 36 -78
28 -77 428 -81 236 -2 365 0 387 8 18 6 46 24 62 41 l29 30 3 347 c2 230 0
360 -8 384 -6 22 -24 48 -44 63 l-33 25 -369 0 -369 0 -38 -25z"/>
<path d="M6045 5560 c-67 -44 -65 -29 -65 -415 0 -391 1 -397 69 -442 l34 -23
370 4 370 4 36 36 36 36 0 375 0 374 -34 35 -35 36 -375 0 c-356 0 -378 -1
-406 -20z"/>
<path d="M7279 5541 l-39 -39 0 -363 c0 -343 1 -366 20 -396 38 -64 41 -64
439 -59 386 4 401 6 436 59 22 34 23 732 1 775 -32 63 -28 62 -442 62 l-376 0
-39 -39z"/>
<path d="M2601 4363 l-285 -3 -33 -26 c-63 -48 -63 -48 -63 -420 l0 -337 25
-42 c42 -72 42 -73 449 -69 395 4 387 3 426 67 19 30 20 53 20 385 0 383 -1
391 -55 426 -32 21 -98 24 -484 19z"/>
<path d="M3601 4362 c-48 -5 -77 -27 -101 -76 -19 -40 -20 -60 -20 -383 0
-337 0 -340 23 -374 42 -64 50 -65 454 -59 l362 5 35 34 36 35 0 368 0 369
-38 41 -39 41 -339 1 c-186 1 -354 0 -373 -2z"/>
<path d="M5087 4361 l-288 -6 -40 -42 -39 -42 0 -347 c0 -384 2 -395 65 -434
31 -19 49 -20 402 -20 369 0 370 0 404 23 59 39 59 40 59 415 0 371 -2 383
-54 432 -32 29 -45 30 -509 21z"/>
<path d="M6071 4357 c-17 -4 -44 -24 -60 -44 l-31 -38 0 -348 c0 -383 2 -396
60 -437 27 -19 45 -20 403 -20 357 0 375 1 399 20 56 44 58 57 58 444 l0 356
-34 38 -34 37 -366 0 c-201 0 -379 -3 -395 -8z"/>
<path d="M7331 4357 c-16 -4 -43 -23 -60 -42 l-31 -36 0 -366 0 -365 39 -39
39 -39 377 0 377 0 39 39 39 39 0 369 0 370 -34 39 -34 39 -361 0 c-198 0
-374 -3 -390 -8z"/>
<path d="M5160 3140 c-370 -5 -367 -5 -414 -61 l-26 -31 0 -361 c0 -339 1
-363 20 -402 37 -76 31 -75 443 -75 201 0 373 3 382 6 9 4 32 27 51 52 l34 45
0 361 c0 324 -2 365 -18 396 -20 40 -76 81 -106 78 -12 -1 -176 -5 -366 -8z"/>
<path d="M7651 3143 c-308 -3 -325 -4 -352 -24 -59 -42 -59 -44 -59 -446 0
-347 1 -370 20 -400 38 -62 42 -63 435 -63 393 0 397 1 435 63 19 30 20 53 20
407 0 359 -1 376 -20 408 -23 38 -75 63 -122 60 -18 -2 -179 -4 -357 -5z"/>
<path d="M2281 3113 c-60 -47 -61 -56 -61 -438 0 -379 1 -389 59 -438 l33 -27
370 0 c359 0 371 1 399 21 60 42 60 42 57 460 l-3 381 -37 34 -38 34 -372 0
-373 0 -34 -27z"/>
<path d="M3549 3117 c-69 -46 -70 -49 -67 -460 l3 -368 42 -40 42 -39 364 0
c362 0 364 0 398 23 59 40 59 38 59 440 0 399 0 402 -56 446 -26 20 -37 21
-389 21 -360 0 -362 0 -396 -23z"/>
<path d="M6048 3122 c-14 -9 -36 -29 -47 -44 -20 -25 -21 -37 -21 -393 0 -401
0 -398 60 -449 l32 -26 370 0 c353 0 371 1 398 20 59 42 60 53 60 455 0 396
-1 404 -54 439 -22 14 -69 16 -398 16 -340 0 -375 -2 -400 -18z"/>
<path d="M1867 1840 c3 -11 12 -20 21 -20 13 0 12 3 -3 20 -10 11 -19 20 -21
20 -1 0 0 -9 3 -20z"/>
<path d="M1910 1807 c0 -1 19 -20 42 -42 24 -22 36 -31 29 -20 -9 13 -5 11 11
-5 14 -14 24 -28 22 -31 -2 -4 3 -12 11 -19 8 -7 15 -19 15 -27 0 -8 5 -11 13
-7 6 4 8 3 4 -1 -14 -16 -36 -14 -30 3 4 15 3 15 -6 2 -8 -12 -6 -19 9 -32 25
-20 25 -25 3 -31 -17 -4 -17 -5 -1 -6 11 -1 15 -6 12 -16 -4 -9 1 -18 11 -21
16 -6 15 -9 -6 -26 -18 -14 -20 -17 -5 -11 17 6 19 3 13 -28 -3 -19 -3 -28 0
-21 2 6 8 10 12 7 5 -2 6 7 3 20 -2 14 0 25 6 25 5 0 9 -22 8 -49 -1 -36 2
-47 12 -43 7 2 10 12 7 21 -5 12 -3 13 6 4 6 -6 12 -23 12 -38 0 -19 3 -25 15
-20 12 4 12 3 3 -9 -9 -11 -9 -14 1 -12 7 0 13 -3 13 -9 0 -5 -6 -9 -15 -7
-12 2 -12 1 -1 -6 11 -8 11 -11 0 -16 -8 -3 -4 -3 9 0 13 3 22 1 22 -7 0 -8 4
-8 13 -2 8 7 18 4 30 -9 9 -10 17 -20 17 -23 0 -3 0 -9 0 -15 0 -5 8 -10 17
-10 13 0 14 3 5 12 -7 7 -12 17 -12 22 0 6 5 3 11 -6 5 -10 17 -18 26 -18 12
0 14 -7 9 -32 -4 -21 -3 -28 3 -19 9 14 35 6 26 -9 -3 -4 4 -6 15 -3 11 3 26
1 33 -4 24 -19 47 -22 61 -7 13 13 15 12 13 -10 -1 -14 3 -25 8 -25 6 0 9 9 7
19 -2 11 2 20 8 20 6 0 8 -4 5 -10 -10 -16 18 -12 45 7 20 13 22 14 13 2 -16
-19 -5 -33 14 -18 21 18 15 2 -7 -19 -20 -19 -20 -19 8 -17 16 1 34 5 40 9 6
4 24 0 40 -8 16 -8 32 -13 35 -10 9 9 87 11 81 2 -3 -5 0 -16 7 -24 12 -14 16
-13 36 12 20 24 25 27 33 14 5 -8 10 -10 10 -5 0 6 13 12 29 13 22 2 31 -3 36
-18 3 -11 10 -20 15 -20 5 0 7 7 4 15 -7 17 11 21 21 5 3 -5 12 -10 18 -10 7
0 6 4 -3 10 -16 10 -16 10 70 15 57 3 61 4 54 17 -4 6 -3 8 3 5 6 -4 10 -20 9
-36 -1 -17 2 -28 6 -25 4 3 8 16 8 30 0 25 14 32 26 12 4 -6 3 -8 -2 -5 -5 3
-10 -3 -10 -14 0 -19 1 -19 13 -3 11 15 13 15 28 0 9 -9 21 -14 26 -11 5 4 9
1 9 -6 0 -7 3 -9 6 -6 9 8 -16 38 -25 32 -4 -2 -8 2 -8 10 0 10 5 11 17 5 10
-5 21 -6 25 -2 5 4 6 2 2 -3 -8 -15 4 -31 29 -39 15 -4 24 -2 28 9 3 8 1 15
-4 15 -6 0 -10 5 -10 11 0 8 5 7 15 -1 9 -7 30 -13 47 -14 17 -1 33 -7 36 -14
4 -14 -14 -16 -23 -2 -10 17 -21 11 -34 -17 l-11 -28 19 23 c18 20 21 21 29 6
8 -15 11 -14 26 7 14 20 16 21 16 5 0 -16 3 -15 25 8 29 31 51 36 33 7 -7 -11
-16 -17 -22 -14 -5 4 -6 1 -2 -6 6 -9 12 -9 25 3 12 11 20 13 28 5 7 -7 19 -2
41 15 18 16 36 24 46 20 9 -3 27 1 41 10 23 15 24 15 18 -1 -5 -12 -3 -14 7
-8 9 5 11 4 6 -3 -9 -15 -1 -15 25 -2 13 7 19 7 19 0 0 -5 -5 -10 -12 -10 -28
0 10 -19 49 -26 39 -6 44 -4 52 17 5 13 10 18 10 11 1 -9 8 -11 21 -7 16 5 20
2 20 -16 0 -12 3 -19 7 -16 3 4 12 2 20 -5 11 -9 13 -8 11 2 -2 9 7 15 25 15
16 1 32 7 38 15 8 14 13 7 10 -12 0 -5 11 -8 25 -8 17 0 23 4 19 13 -4 6 1 3
11 -8 16 -20 16 -20 11 3 -3 12 -1 20 4 16 6 -3 22 2 37 11 l27 16 -22 -19
-23 -20 30 -11 c17 -5 30 -16 30 -23 0 -7 6 -4 12 7 6 11 13 22 15 24 1 3 14
-6 28 -19 21 -19 25 -21 25 -7 0 9 -5 16 -11 15 -6 -2 -13 3 -14 10 -2 7 -1 8
1 3 3 -6 12 -7 20 -4 8 3 14 -1 14 -8 0 -8 10 1 21 19 22 34 32 42 23 17 -5
-12 1 -14 25 -11 l30 3 -15 -31 -15 -31 19 24 c21 26 74 37 65 14 -3 -7 0 -13
6 -13 10 0 16 22 12 45 -1 6 5 2 15 -7 16 -16 16 -18 1 -42 -10 -14 -17 -29
-17 -33 0 -4 9 5 19 20 10 16 21 28 25 28 17 -3 18 1 0 22 -17 20 -16 20 9 -2
15 -14 27 -19 27 -13 0 7 7 12 16 12 8 0 13 -4 10 -9 -4 -5 4 -7 16 -3 20 5
21 3 10 -10 -11 -14 -10 -17 8 -23 12 -4 24 -4 27 -1 4 3 -2 6 -13 6 -19 1
-19 1 1 15 13 10 34 14 65 11 37 -4 48 -1 62 17 l17 22 -3 -27 c-4 -32 28 -46
44 -20 5 10 10 12 10 5 0 -16 42 -11 48 5 2 7 -1 12 -8 12 -6 0 -8 -5 -4 -12
4 -7 3 -8 -5 -4 -16 10 -3 27 17 24 10 -2 16 3 14 10 -1 8 2 11 8 7 8 -5 7
-11 -1 -21 -6 -8 -8 -14 -4 -14 5 0 0 -9 -10 -20 -10 -11 -14 -20 -9 -20 15 1
56 39 50 48 -2 4 5 8 17 9 12 0 16 -1 10 -4 -7 -3 -13 -9 -13 -15 0 -6 7 -8
15 -4 8 3 15 0 15 -6 0 -7 4 -7 14 1 9 8 16 8 20 2 7 -11 64 -41 77 -41 5 0 6
7 3 15 -4 8 -10 15 -16 15 -5 0 -6 -6 -2 -12 4 -8 3 -10 -2 -5 -5 5 -9 14 -9
20 0 7 -9 11 -20 9 -16 -2 -17 -1 -5 7 9 7 19 6 27 -1 7 -6 13 -7 13 -2 0 5 5
1 11 -10 9 -15 13 -16 20 -5 8 12 11 11 19 -3 12 -19 42 -14 34 6 -3 7 5 12
21 12 l25 0 -22 -23 c-25 -27 -14 -31 15 -5 11 9 17 11 13 5 -10 -18 34 -16
57 1 18 14 18 15 0 25 -10 6 -13 10 -8 11 6 0 17 -5 25 -10 13 -9 12 -12 -4
-25 -16 -12 -17 -15 -4 -15 28 0 48 12 41 24 -4 6 1 4 12 -4 17 -14 17 -13 10
10 l-7 25 21 -24 c11 -13 21 -19 21 -12 0 7 5 9 10 6 6 -3 10 1 10 11 0 13 -3
14 -15 4 -8 -7 -15 -8 -15 -2 0 5 6 15 14 21 11 9 15 8 20 -5 4 -9 9 -14 13
-11 3 4 13 1 21 -6 13 -10 15 -9 10 11 -4 12 -2 20 3 16 13 -7 11 -31 -2 -40
-6 -3 -15 0 -20 7 -6 10 -8 7 -6 -8 0 -13 8 -25 16 -28 9 -3 12 -3 8 1 -9 10
11 34 26 30 7 -1 8 -1 4 2 -4 2 -2 10 4 18 17 20 31 -3 18 -28 -6 -12 -6 -18
0 -18 13 0 21 14 23 43 2 28 28 26 28 -2 0 -13 -2 -13 -9 -2 -7 10 -9 7 -8
-12 2 -21 5 -23 17 -14 8 7 19 17 23 22 6 6 10 6 14 -2 8 -21 26 -15 20 6 -3
11 1 22 8 25 10 3 12 -3 9 -21 -3 -17 -1 -24 8 -20 7 2 23 0 36 -4 14 -6 21
-5 17 0 -7 12 48 5 75 -9 11 -6 20 -7 19 -3 -5 32 31 43 39 12 3 -11 1 -11 -7
1 -9 13 -11 13 -11 -2 0 -27 30 -22 31 5 l0 22 9 -22 c11 -27 16 -28 24 -7 3
8 2 12 -4 9 -6 -3 -10 -1 -10 5 0 13 49 5 64 -11 8 -8 5 -9 -12 -4 -21 6 -22
5 -11 -13 10 -17 15 -18 26 -7 7 8 10 21 6 30 -5 14 -2 16 15 10 13 -3 22 -2
22 3 0 6 6 9 13 8 24 -5 67 -29 67 -39 0 -5 -6 -5 -13 2 -8 6 -17 8 -20 4 -4
-3 -7 -1 -7 5 0 17 -35 15 -50 -3 -9 -11 -10 -19 -3 -26 8 -8 11 -6 10 7 -1
10 6 20 15 22 11 2 17 -2 15 -10 -2 -7 -2 -10 0 -6 3 4 16 3 30 -3 26 -10 42
0 43 26 0 7 3 7 8 0 13 -18 51 -35 57 -26 3 5 2 16 -1 25 -3 9 -2 16 4 16 5 0
12 -9 15 -20 6 -24 42 -27 51 -4 6 16 29 16 70 -1 14 -6 17 -5 12 3 -4 7 0 19
8 28 9 8 16 11 16 5 0 -6 7 -11 15 -11 8 0 15 -4 15 -10 0 -14 -13 -13 -28 2
-8 8 -12 8 -12 1 0 -6 7 -13 15 -17 8 -3 14 -11 13 -17 -2 -6 5 -13 15 -14 15
-3 16 -1 6 12 -10 12 -10 16 1 23 16 10 33 3 25 -11 -4 -5 -1 -9 5 -9 7 0 10
6 7 13 -7 17 17 37 33 27 8 -5 21 -5 29 -1 22 11 41 3 41 -17 0 -9 5 -24 10
-32 7 -11 8 -5 3 19 -4 25 -3 32 6 27 6 -4 9 -11 6 -15 -2 -5 7 -6 20 -3 15 2
25 0 25 -7 0 -6 7 -11 15 -11 17 0 19 12 5 26 -7 7 -6 11 5 11 8 0 15 -7 16
-16 0 -9 3 -11 5 -5 3 7 14 10 24 7 11 -3 31 2 45 11 26 17 32 12 16 -13 -5
-7 -13 -11 -17 -9 -5 3 -18 2 -28 -2 -19 -6 -19 -7 1 -12 13 -3 35 3 55 15 18
11 44 21 56 22 13 1 28 8 33 16 7 11 9 11 9 -3 0 -9 -6 -19 -12 -21 -9 -4 -5
-12 12 -26 27 -21 40 -20 21 3 -9 11 -8 15 4 20 11 4 14 2 9 -6 -4 -7 -3 -8 5
-4 6 4 17 3 24 -2 7 -5 32 -8 57 -7 25 1 53 -2 64 -7 14 -8 17 -7 14 4 -3 7
-17 13 -31 13 -15 -1 -27 3 -27 8 0 5 -6 4 -14 -2 -10 -9 -15 -8 -19 3 -4 10
-1 13 8 10 7 -3 15 2 18 13 4 16 5 16 6 1 0 -10 6 -18 12 -18 5 0 7 5 3 11 -4
8 0 8 15 0 12 -7 25 -10 29 -7 4 2 23 1 42 -4 23 -5 27 -8 13 -9 -12 -1 -24
-5 -27 -9 -2 -4 11 -6 30 -4 30 4 34 7 28 25 -6 20 -6 20 10 4 24 -23 60 -23
51 0 -5 15 -3 15 13 -2 11 -11 18 -23 16 -26 -2 -3 3 -6 11 -6 8 0 15 7 15 14
0 12 3 11 16 -1 18 -19 31 -21 17 -4 -6 7 -13 22 -17 33 -7 19 -6 18 13 -2 12
-12 21 -27 21 -33 0 -5 4 -10 10 -10 6 0 6 9 0 25 -6 17 -6 26 3 31 7 4 9 4 5
-1 -4 -4 -2 -17 4 -29 7 -11 11 -24 10 -29 -1 -4 2 -7 7 -7 5 0 14 15 21 33
10 28 12 30 21 15 6 -10 17 -18 24 -18 8 0 15 -6 16 -12 0 -7 6 1 12 18 11 28
14 29 37 17 14 -7 19 -13 13 -14 -7 -1 -17 -2 -23 -3 -5 0 -10 -4 -10 -8 0 -5
0 -11 0 -14 0 -4 7 -1 15 6 12 10 15 10 15 -1 1 -9 4 -8 11 4 6 9 7 27 3 40
-6 19 -5 20 9 9 9 -8 14 -19 11 -26 -2 -6 4 -12 15 -13 13 -1 18 3 14 13 -7
19 11 18 27 -1 13 -15 41 -21 39 -7 -4 22 3 30 21 25 11 -3 17 -10 14 -15 -4
-6 5 -3 18 6 20 13 31 14 54 6 23 -9 26 -13 14 -21 -13 -9 -13 -10 0 -6 8 2
14 11 14 20 -1 12 6 15 27 14 16 -1 29 -5 29 -8 0 -4 8 -6 18 -5 10 0 16 -5
14 -14 -2 -8 0 -11 5 -7 4 5 8 16 8 25 0 13 9 17 42 17 31 0 42 4 40 14 -1 8
3 16 10 18 7 3 10 -5 9 -20 -2 -14 2 -24 11 -24 16 0 17 9 1 25 -10 10 -3 12
34 9 26 -1 50 -6 54 -10 15 -15 24 -6 12 13 -11 16 -9 22 9 39 15 14 23 17 26
8 6 -20 42 -14 47 8 6 21 30 27 42 10 5 -6 8 -6 8 2 0 7 -8 17 -17 23 -15 10
-15 11 -2 7 9 -3 26 1 38 9 19 14 21 14 21 -5 0 -12 4 -21 9 -21 5 0 8 12 5
26 -4 22 -3 23 10 12 7 -7 12 -16 10 -20 -2 -4 1 -10 7 -14 8 -4 9 -3 5 4 -4
7 -3 12 2 12 6 0 13 7 16 16 3 8 2 12 -4 9 -6 -3 -10 -1 -10 6 0 6 8 9 20 6
16 -4 20 0 20 21 1 26 1 26 15 8 18 -23 19 -17 5 19 -12 31 2 65 26 65 8 0 12
-4 9 -10 -3 -5 -1 -10 5 -10 6 0 8 -5 4 -12 -4 -6 -3 -8 3 -5 11 7 11 36 0 54
-4 6 1 17 11 24 15 13 16 12 3 -3 -7 -10 -9 -18 -5 -18 5 0 15 9 22 21 8 12 9
18 3 15 -5 -4 -12 -2 -16 4 -3 5 1 10 9 10 9 0 16 6 17 13 0 6 4 3 8 -7 7 -19
8 -19 14 3 3 14 0 24 -9 28 -8 3 -14 10 -14 15 0 7 5 6 14 -1 19 -16 32 3 40
54 3 22 5 41 6 42 0 1 6 0 14 -3 10 -4 12 2 9 20 -3 15 -1 26 5 26 6 0 14 9
17 20 4 11 29 30 60 44 29 14 56 29 59 35 4 6 -15 1 -41 -11 l-48 -22 -3146 0
-3146 -1 -61 32 c-34 17 -62 31 -62 30z m167 -232 c0 -8 -4 -12 -9 -9 -5 3 -6
10 -3 15 9 13 12 11 12 -6z m6147 -11 c3 -8 2 -12 -4 -9 -6 3 -10 10 -10 16 0
14 7 11 14 -7z m-5880 -326 c4 2 12 1 19 -2 6 -3 -1 -4 -18 -3 -24 2 -31 7
-33 27 l-2 25 14 -25 c8 -14 17 -24 20 -22z m61 -16 c-3 -3 -11 0 -18 7 -9 10
-8 11 6 5 10 -3 15 -9 12 -12z m1129 -38 c3 -8 2 -12 -4 -9 -6 3 -10 10 -10
16 0 14 7 11 14 -7z m4196 6 c0 -5 -2 -10 -4 -10 -3 0 -8 5 -11 10 -3 6 -1 10
4 10 6 0 11 -4 11 -10z m59 -11 c-22 -14 -33 -10 -19 6 7 8 17 12 22 9 6 -4 5
-10 -3 -15z m-5029 -5 c0 -2 -11 -4 -25 -4 -14 0 -25 4 -25 9 0 4 11 6 25 3
14 -2 25 -6 25 -8z m85 6 c3 -5 1 -10 -4 -10 -6 0 -11 5 -11 10 0 6 2 10 4 10
3 0 8 -4 11 -10z m67 -9 c-4 -10 -7 -11 -10 -3 -2 7 -9 9 -14 6 -6 -4 -8 -3
-5 3 10 16 36 11 29 -6z m98 9 c0 -5 -2 -10 -4 -10 -3 0 -8 5 -11 10 -3 6 -1
10 4 10 6 0 11 -4 11 -10z m130 6 c0 -3 -4 -8 -10 -11 -5 -3 -10 -1 -10 4 0 6
5 11 10 11 6 0 10 -2 10 -4z m-560 -10 c0 -2 -7 -7 -16 -10 -8 -3 -12 -2 -9 4
6 10 25 14 25 6z m190 -37 c-9 -15 -15 -18 -23 -10 -8 8 -5 16 9 29 22 22 30
12 14 -19z m4894 33 c3 -5 -1 -9 -9 -9 -8 0 -12 4 -9 9 3 4 7 8 9 8 2 0 6 -4
9 -8z m-4714 -6 c0 -2 -7 -6 -15 -10 -8 -3 -15 -1 -15 4 0 6 7 10 15 10 8 0
15 -2 15 -4z m1195 -19 c16 -5 15 -5 -4 -4 -14 1 -26 9 -28 17 -3 10 -2 11 4
4 4 -7 17 -14 28 -17z m3245 13 c0 -5 -5 -10 -11 -10 -5 0 -7 5 -4 10 3 6 8
10 11 10 2 0 4 -4 4 -10z m203 -5 c-3 -9 -8 -14 -10 -11 -3 3 -2 9 2 15 9 16
15 13 8 -4z m-3863 -27 c0 -19 -16 -5 -17 14 -2 18 0 20 7 8 5 -8 10 -18 10
-22z m-260 12 c0 -5 -4 -10 -10 -10 -5 0 -10 5 -10 10 0 6 5 10 10 10 6 0 10
-4 10 -10z m353 -16 c-4 -10 -9 -12 -15 -6 -12 12 -1 35 12 27 5 -3 6 -13 3
-21z m53 14 c4 -7 3 -8 -4 -4 -7 4 -12 2 -12 -5 0 -7 -3 -10 -6 -6 -6 5 3 27
11 27 2 0 7 -5 11 -12z m218 2 c-3 -3 -8 -3 -11 0 -2 3 -11 -6 -18 -20 l-13
-25 1 27 c2 22 7 27 24 26 12 -1 20 -5 17 -8z m391 0 c3 -5 1 -10 -4 -10 -6 0
-11 5 -11 10 0 6 2 10 4 10 3 0 8 -4 11 -10z m1135 0 c0 -5 -5 -10 -11 -10 -5
0 -7 5 -4 10 3 6 8 10 11 10 2 0 4 -4 4 -10z m387 -24 c-8 -20 -34 -21 -34 -1
0 12 3 12 15 2 13 -10 15 -8 9 12 -4 17 -3 21 5 13 6 -6 8 -18 5 -26z m1183
24 c0 -5 -4 -10 -10 -10 -5 0 -10 5 -10 10 0 6 5 10 10 10 6 0 10 -4 10 -10z
m-3490 -10 c0 -5 -2 -10 -4 -10 -3 0 -8 5 -11 10 -3 6 -1 10 4 10 6 0 11 -4
11 -10z m1775 0 c3 -5 1 -10 -4 -10 -6 0 -11 5 -11 10 0 6 2 10 4 10 3 0 8 -4
11 -10z m465 -44 c0 -13 -39 35 -40 48 0 5 9 -1 20 -14 11 -13 20 -28 20 -34z
m110 44 c0 -5 -2 -10 -4 -10 -3 0 -8 5 -11 10 -3 6 -1 10 4 10 6 0 11 -4 11
-10z m407 -5 c0 -8 -4 -12 -9 -9 -5 3 -6 10 -3 15 9 13 12 11 12 -6z m-873
-24 c-2 -3 -12 3 -22 13 -16 17 -16 18 5 5 12 -7 20 -15 17 -18z m1411 19 c3
-5 1 -10 -4 -10 -6 0 -11 5 -11 10 0 6 2 10 4 10 3 0 8 -4 11 -10z m115 -11
c0 -11 -4 -18 -10 -14 -5 3 -7 12 -3 20 7 21 13 19 13 -6z m-415 -9 c3 -5 1
-10 -4 -10 -6 0 -11 5 -11 10 0 6 2 10 4 10 3 0 8 -4 11 -10z"/>
<path d="M8250 1616 c0 -2 7 -7 16 -10 8 -3 12 -2 9 4 -6 10 -25 14 -25 6z"/>
<path d="M2103 1413 c-15 -5 -17 -23 -4 -23 5 0 11 7 15 15 3 8 4 15 3 14 -1
0 -8 -3 -14 -6z"/>
<path d="M8106 1393 c-4 -9 -3 -20 2 -25 6 -6 12 -1 15 11 6 25 -8 38 -17 14z"/>
<path d="M7913 1219 c-2 -23 3 -25 10 -4 4 8 3 16 -1 19 -4 3 -9 -4 -9 -15z"/>
<path d="M7837 1203 c-10 -9 -9 -23 1 -23 5 0 9 7 9 15 0 17 -1 18 -10 8z"/>
<path d="M2490 1179 c0 -5 5 -7 10 -4 6 3 10 8 10 11 0 2 -4 4 -10 4 -5 0 -10
-5 -10 -11z"/>
<path d="M2970 1137 c0 -7 9 -13 20 -14 18 -2 18 0 6 13 -18 17 -26 18 -26 1z"/>
<path d="M3566 1135 c4 -8 10 -12 15 -9 14 8 10 24 -6 24 -9 0 -12 -6 -9 -15z"/>
<path d="M2841 1131 c-9 -6 -6 -8 13 -8 14 0 23 3 20 8 -7 11 -15 11 -33 0z"/>
<path d="M2690 1121 c0 -12 28 -22 35 -12 3 5 -2 12 -11 15 -21 8 -24 8 -24
-3z"/>
<path d="M3260 1120 c0 -5 5 -10 10 -10 6 0 10 5 10 10 0 6 -4 10 -10 10 -5 0
-10 -4 -10 -10z"/>
<path d="M4167 1115 c-3 -5 5 -10 18 -10 12 0 22 5 22 10 0 6 -8 11 -18 11
-10 0 -20 -5 -22 -11z"/>
<path d="M3755 1110 c3 -5 8 -10 11 -10 2 0 4 5 4 10 0 6 -5 10 -11 10 -5 0
-7 -4 -4 -10z"/>
<path d="M4254 1100 c0 -10 6 -16 13 -13 7 3 13 9 13 13 0 4 -6 10 -13 13 -7
3 -13 -3 -13 -13z"/>
<path d="M7448 1113 c7 -3 16 -2 19 1 4 3 -2 6 -13 5 -11 0 -14 -3 -6 -6z"/>
<path d="M7544 1109 c1 -7 10 -13 19 -15 9 -1 15 2 11 7 -3 5 -9 7 -14 4 -4
-3 -11 0 -13 5 -3 6 -4 5 -3 -1z"/>
<path d="M7640 1109 c0 -5 5 -7 10 -4 6 3 10 8 10 11 0 2 -4 4 -10 4 -5 0 -10
-5 -10 -11z"/>
<path d="M3990 1100 c0 -5 5 -10 11 -10 5 0 7 5 4 10 -3 6 -8 10 -11 10 -2 0
-4 -4 -4 -10z"/>
<path d="M4816 1101 c-4 -5 -17 -8 -31 -6 -14 1 -28 -1 -30 -5 -3 -5 6 -7 20
-5 14 1 25 -3 25 -9 0 -6 4 -5 9 3 5 7 14 11 20 7 7 -5 9 -1 5 8 -7 18 -11 20
-18 7z"/>
<path d="M6210 1100 c0 -5 5 -10 10 -10 6 0 10 5 10 10 0 6 -4 10 -10 10 -5 0
-10 -4 -10 -10z"/>
<path d="M6246 1094 c-9 -24 -7 -27 9 -10 17 17 19 26 6 26 -5 0 -12 -7 -15
-16z"/>
<path d="M7133 1094 c0 -7 4 -11 8 -8 4 2 9 -1 11 -8 3 -7 7 -8 11 -2 3 5 -2
15 -12 21 -14 9 -18 8 -18 -3z"/>
<path d="M3415 1090 c-3 -5 -1 -10 4 -10 6 0 11 5 11 10 0 6 -2 10 -4 10 -3 0
-8 -4 -11 -10z"/>
<path d="M3465 1090 c-3 -5 -1 -10 4 -10 6 0 11 5 11 10 0 6 -2 10 -4 10 -3 0
-8 -4 -11 -10z"/>
<path d="M4180 1090 c0 -5 5 -10 11 -10 5 0 7 5 4 10 -3 6 -8 10 -11 10 -2 0
-4 -4 -4 -10z"/>
<path d="M4380 1088 c0 -4 7 -8 15 -8 8 0 15 4 15 8 0 5 -7 9 -15 9 -8 0 -15
-4 -15 -9z"/>
<path d="M4547 1089 c7 -7 15 -10 18 -7 3 3 -2 9 -12 12 -14 6 -15 5 -6 -5z"/>
<path d="M6030 1090 c-9 -6 -10 -10 -3 -10 6 0 15 5 18 10 8 12 4 12 -15 0z"/>
<path d="M3960 1081 c0 -6 4 -13 10 -16 6 -3 7 1 4 9 -7 18 -14 21 -14 7z"/>
<path d="M6070 1080 c8 -5 20 -10 25 -10 6 0 3 5 -5 10 -8 5 -19 10 -25 10 -5
0 -3 -5 5 -10z"/>
<path d="M5426 1072 c-3 -5 1 -9 9 -9 8 0 12 4 9 9 -3 4 -7 8 -9 8 -2 0 -6 -4
-9 -8z"/>
<path d="M6926 1072 c-3 -5 1 -9 9 -9 8 0 15 4 15 9 0 4 -4 8 -9 8 -6 0 -12
-4 -15 -8z"/>
<path d="M7327 1066 c-4 -10 -1 -13 8 -9 8 3 12 9 9 14 -7 12 -11 11 -17 -5z"/>
</g>
</svg>
